<?xml version="1.0" encoding="iso-8859-1"?>
<!-- Generator: Adobe Illustrator 19.0.0, SVG Export Plug-In . SVG Version: 6.00 Build 0)  -->
<svg version="1.1" id="Capa_1" xmlns="http://www.w3.org/2000/svg" xmlns:xlink="http://www.w3.org/1999/xlink" x="0px" y="0px"
	 viewBox="0 0 440 440" style="enable-background:new 0 0 440 440;" xml:space="preserve">
<g id="XMLID_7_">
	<path id="XMLID_848_" d="M0,90v260h440V90H0z M30,120h380v30H30V120z M40,220c0-14.566,3.933-28.223,10.763-40h39.272
		C77.878,189.13,70,203.661,70,220s7.878,30.87,20.035,40H50.763C43.933,248.223,40,234.566,40,220z M290,180v80H150v-80H290z
		 M389.237,180c6.83,11.777,10.763,25.434,10.763,40s-3.933,28.223-10.763,40h-39.272C362.122,250.87,370,236.339,370,220
		s-7.878-30.87-20.035-40H389.237z M320,240v-40c11.045,0,20,8.954,20,20S331.045,240,320,240z M120,200v40
		c-11.045,0-20-8.954-20-20S108.955,200,120,200z"/>
</g>
<g>
</g>
<g>
</g>
<g>
</g>
<g>
</g>
<g>
</g>
<g>
</g>
<g>
</g>
<g>
</g>
<g>
</g>
<g>
</g>
<g>
</g>
<g>
</g>
<g>
</g>
<g>
</g>
<g>
</g>
</svg>
